<?xml version="1.0" encoding="UTF-8"?>
<svg version="1.1" xmlns="http://www.w3.org/2000/svg" width="2000" height="2000">
<path d="M0 0 C3.58953494 0.0038582 7.17896236 -0.01543799 10.76845262 -0.03163423 C17.87449355 -0.06007868 24.98040895 -0.06725018 32.08650049 -0.06776054 C40.60460965 -0.06937238 49.12261406 -0.09405823 57.64068103 -0.11908038 C76.27721929 -0.17280295 94.91372835 -0.19458366 113.55033263 -0.20837912 C114.51493502 -0.20909328 115.47953741 -0.20980744 116.47337017 -0.21054323 C117.44001103 -0.21125316 118.40665189 -0.21196308 119.4025849 -0.21269452 C129.15443539 -0.22017959 138.9062768 -0.23297427 148.65812053 -0.24648687 C182.08065148 -0.29277298 215.5031758 -0.33136844 248.92573938 -0.34117969 C249.96292378 -0.34149303 251.00010817 -0.34180637 252.06872239 -0.34212921 C256.27160553 -0.34339748 260.47448867 -0.34464128 264.67737181 -0.34588422 C267.84041142 -0.3468228 271.00345104 -0.34777372 274.16649065 -0.34872611 C275.7342852 -0.34918632 275.7342852 -0.34918632 277.33375236 -0.34965582 C311.18246838 -0.35990288 345.03088709 -0.41600766 378.87949502 -0.50012199 C414.71746376 -0.58901585 450.55526424 -0.63769856 486.39334676 -0.64037504 C490.33577288 -0.64081472 494.27819894 -0.64141227 498.22062502 -0.64212402 C499.19126787 -0.64227967 500.16191073 -0.64243532 501.161967 -0.64259569 C516.71404573 -0.64600241 532.2658304 -0.68530632 547.81781223 -0.73771745 C563.48405545 -0.78956636 579.14991703 -0.7998254 594.81621926 -0.76928819 C603.28673597 -0.75383575 611.75634068 -0.75547731 620.22673426 -0.80781349 C684.25860306 -1.18606853 684.25860306 -1.18606853 711.65515885 10.23795799 C716.57196953 12.24987108 721.6185728 13.79763959 726.68406877 15.38540475 C730.04709055 16.50797914 733.40110828 17.65594885 736.75438127 18.80727975 C737.65430803 19.11477151 738.55423479 19.42226327 739.48143206 19.73907296 C758.86709869 26.38024807 777.94083979 33.73769224 796.87938127 41.55727975 C797.53426531 41.8275599 798.18914934 42.09784005 798.86387835 42.37631051 C837.35829784 58.30034911 875.47164154 76.18062814 911.4828969 97.17544381 C914.5242784 98.92913363 917.60077087 100.61333866 920.68260393 102.29458443 C939.29836129 112.46518492 957.18745644 123.87011239 974.87938127 135.55727975 C975.46219866 135.94077584 976.04501604 136.32427193 976.64549456 136.71938912 C999.03677018 151.45795029 1020.65686204 167.18699221 1041.87938127 183.55727975 C1042.56580706 184.08627877 1043.25223284 184.61527779 1043.9594594 185.16030709 C1051.3943077 190.90420399 1058.64339788 196.82895643 1065.78563127 202.93227975 C1068.67489448 205.39643939 1071.61456586 207.79388974 1074.56688127 210.18227975 C1078.95952246 213.75487649 1083.16330233 217.49077979 1087.34422502 221.30727975 C1089.97954159 223.64617395 1092.6921542 225.85443858 1095.44188127 228.05727975 C1099.84412651 231.616278 1103.83431257 235.4038759 1107.78172502 239.45571725 C1109.66641192 241.3439138 1111.59555223 243.08340795 1113.62938127 244.80727975 C1118.02101193 248.56651559 1122.02895716 252.68002048 1126.09007463 256.78750436 C1129.61896939 260.3410731 1133.23975447 263.70473042 1137.05125627 266.95571725 C1141.72861684 271.05340492 1146.03372405 275.51625058 1150.06688127 280.24477975 C1153.32370924 284.04066889 1156.8257381 287.54323287 1160.37938127 291.05727975 C1164.41858054 295.05621179 1168.33659743 299.07586578 1172.01610002 303.4127485 C1174.02000209 305.71912635 1176.09204918 307.9495696 1178.17772112 310.18179146 C1183.15522988 315.5107626 1187.91026933 320.93380663 1192.47703752 326.623686 C1195.32899098 330.10631534 1198.2876525 333.48503155 1201.25438127 336.86977975 C1206.41890948 342.78257341 1211.33910536 348.83942015 1216.14500627 355.045561 C1218.45882841 358.03272202 1220.824986 360.9736303 1223.20506487 363.90810982 C1230.74818876 373.22615925 1237.83155397 382.86187661 1244.87938127 392.55727975 C1245.74925676 393.74885689 1245.74925676 393.74885689 1246.63670549 394.96450631 C1253.25788148 404.03445758 1259.72116517 413.16444508 1265.87938127 422.55727975 C1267.01160796 424.24064323 1268.14389844 425.92396438 1269.27757463 427.60635201 C1287.52119496 454.75939408 1304.12514598 482.89688021 1319.87938127 511.55727975 C1320.59831757 512.57173691 1320.59831757 512.57173691 1321.33177783 513.60668815 C1327.15285492 522.55942332 1326.7283588 531.0686309 1326.65677462 541.36086957 C1326.66546848 543.27932521 1326.67678075 545.19777045 1326.69046376 547.116197 C1326.72046587 552.39190764 1326.71317924 557.66700817 1326.69979749 562.94276288 C1326.69179732 568.68109015 1326.71841987 574.41927435 1326.74058423 580.15754996 C1326.77458908 590.21635001 1326.78615208 600.27498345 1326.78302965 610.33383767 C1326.77968646 621.1253641 1326.7889848 631.91675723 1326.81413469 642.70825593 C1326.81650301 643.73134104 1326.81650301 643.73134104 1326.81891918 644.77509455 C1326.8253859 647.55311786 1326.831934 650.33114097 1326.83858815 653.10916384 C1326.90787406 682.08149571 1326.93433035 711.05376905 1326.94522667 740.02617465 C1326.94640361 743.14439445 1326.94759117 746.26261424 1326.94878683 749.38083402 C1326.94922503 750.54156595 1326.94922503 750.54156595 1326.94967208 751.72574701 C1326.95630296 768.88087511 1326.97300252 786.03598881 1326.99129314 803.19110786 C1326.998797 810.25733845 1327.00603921 817.32356932 1327.01329694 824.38980017 C1327.01409994 825.17059338 1327.01490295 825.95138659 1327.01573028 826.7558402 C1327.06162317 871.49905828 1327.09358836 916.24226868 1327.09754 960.98551099 C1327.09769769 962.65984165 1327.09785624 964.33417231 1327.09801565 966.00850297 C1327.09872435 973.56776302 1327.09935877 981.12702307 1327.0999846 988.68628312 C1327.10026554 992.0570577 1327.10055503 995.42783228 1327.1008461 998.79860685 C1327.10098936 1000.48574106 1327.10112811 1002.17287526 1327.10126237 1003.86000946 C1327.10552869 1057.18346921 1327.16358153 1110.50662421 1327.26512346 1163.82998482 C1327.34083244 1203.59883826 1327.41216191 1243.36763427 1327.42925844 1283.13656346 C1327.42960522 1283.93771079 1327.42995199 1284.73885812 1327.43030927 1285.56428265 C1327.4377618 1303.15468163 1327.44111726 1320.7450793 1327.44068494 1338.33547979 C1327.44057135 1344.63037857 1327.44078114 1350.92527733 1327.44115653 1357.2201761 C1327.44124799 1358.78612265 1327.44132381 1360.35206919 1327.44138393 1361.91801573 C1327.44251664 1386.83516684 1327.48517319 1411.75202879 1327.54891417 1436.66909169 C1327.6128579 1461.78075317 1327.63151172 1486.89203546 1327.5890298 1512.00375411 C1327.58315061 1515.48093135 1327.57775598 1518.95810918 1327.5726491 1522.43528763 C1327.57162881 1523.11685108 1327.57060853 1523.79841453 1327.56955732 1524.50063142 C1327.55383209 1535.90466046 1327.59328361 1547.30779979 1327.64772611 1558.71171386 C1327.69131344 1568.65636097 1327.68359899 1578.60013293 1327.63497166 1588.54475398 C1327.60872585 1594.20384185 1327.60392389 1599.86056411 1327.66181851 1605.51947002 C1327.89015957 1629.33010467 1327.7699201 1648.27189215 1313.51797146 1668.23716519 C1311.26084393 1671.43307988 1309.39959739 1674.77308731 1307.50438127 1678.1939985 C1306.30211565 1680.21454834 1305.09396321 1682.23160936 1303.87938127 1684.24477975 C1303.21406389 1685.35595162 1302.54874651 1686.4671235 1301.86326799 1687.61196725 C1300.51435717 1689.86154137 1299.16271679 1692.10948148 1297.80809221 1694.35561959 C1295.9912866 1697.37151691 1294.18784232 1700.39499894 1292.38719377 1703.420561 C1272.39006431 1736.84894217 1249.82579391 1768.85179902 1225.87938127 1799.55727975 C1224.98872443 1800.70699466 1224.09810044 1801.85673503 1223.20750627 1803.0064985 C1217.7921791 1809.97276615 1212.21903844 1816.7740895 1206.48875627 1823.483061 C1204.11669092 1826.26461062 1201.80445415 1829.09076636 1199.50438127 1831.93227975 C1190.50132249 1842.97346414 1181.03510532 1853.58717251 1171.32029924 1864.00308053 C1169.89351067 1865.54203954 1168.47992178 1867.09199564 1167.07078752 1868.6471235 C1162.53441664 1873.65026181 1157.93463787 1878.56054343 1153.12938127 1883.30727975 C1149.42790208 1886.96675634 1145.93679778 1890.70904382 1142.55125627 1894.65884225 C1138.41842517 1899.3517299 1133.94748619 1903.68852849 1129.19188127 1907.74477975 C1125.39599213 1911.00160771 1121.89342815 1914.50363657 1118.37938127 1918.05727975 C1114.38044924 1922.09647901 1110.36079524 1926.0144959 1106.02391252 1929.6939985 C1103.71753467 1931.69790056 1101.48709142 1933.76994765 1099.25486956 1935.85561959 C1093.93070412 1940.82863961 1088.51246822 1945.57952746 1082.82860002 1950.14321725 C1079.26032955 1953.06400023 1075.78954459 1956.08655172 1072.31688127 1959.11977975 C1066.61753755 1964.08583302 1060.8345981 1968.899058 1054.87938127 1973.55727975 C1053.33941303 1974.77877288 1051.79951408 1976.00035421 1050.26066973 1977.22326293 C1049.14438327 1978.10244291 1048.0219458 1978.97387681 1046.89309767 1979.83686858 C1043.26010124 1982.62204902 1039.78959444 1985.51100783 1036.38550495 1988.57262801 C1023.00092396 2000.21663451 1013.13314294 2002.88263552 995.68436346 2002.56515137 C993.29985126 2002.58127012 990.91537814 2002.60439236 988.53099287 2002.63380549 C982.68926385 2002.68784281 976.85109866 2002.66842678 971.00942306 2002.6170884 C963.95382179 2002.55941288 956.89943466 2002.59625409 949.8438164 2002.63520372 C936.66176711 2002.70528443 923.48072672 2002.70003114 910.29861841 2002.65298287 C896.9504168 2002.60561794 883.60285846 2002.59325579 870.25459871 2002.62310998 C869.40981688 2002.62497578 868.56503505 2002.62684158 867.69465376 2002.62876392 C864.25368727 2002.63647998 860.81272147 2002.64444542 857.37175628 2002.6527265 C825.36185793 2002.72972125 793.35241215 2002.72838816 761.3424798 2002.67687432 C730.49873296 2002.62728404 699.65519523 2002.60474663 668.81140909 2002.62045495 C666.87322 2002.62140055 664.9350309 2002.62234187 662.9968418 2002.62327892 C655.20782574 2002.62707936 647.41880976 2002.63103622 639.62979389 2002.63520771 C617.85743381 2002.64676615 596.0850739 2002.65283669 574.31271086 2002.65466325 C573.32131292 2002.65474765 572.32991499 2002.65483206 571.3084747 2002.65491902 C539.72569027 2002.65721393 508.14297012 2002.63535801 476.56021032 2002.59675233 C475.5360822 2002.59550346 474.51195408 2002.59425459 473.45679177 2002.59296788 C456.82625182 2002.57261174 440.19571351 2002.55098725 423.56517529 2002.52926837 C357.60133191 2002.44320694 291.63793012 2002.43263841 225.67405901 2002.49233834 C209.04828018 2002.50731801 192.42250129 2002.52217812 175.79672155 2002.5361139 C174.26111227 2002.53740738 174.26111227 2002.53740738 172.69448058 2002.53872699 C141.14153553 2002.56511245 109.58862689 2002.57403342 78.03567228 2002.56369034 C77.04504545 2002.56336593 76.05441861 2002.56304151 75.03377278 2002.56270726 C53.28732523 2002.55537594 31.54088186 2002.54344771 9.79443906 2002.52739992 C2.01338893 2002.52166846 -5.76766134 2002.51613708 -13.54871164 2002.51064458 C-15.48439089 2002.50926741 -17.42007012 2002.50787068 -19.35574933 2002.50645429 C-48.27744707 2002.48530788 -77.19900096 2002.49429108 -106.120689 2002.5236341 C-139.94893758 2002.5579184 -173.77670252 2002.54473874 -207.6048715 2002.45851019 C-211.03326032 2002.44996694 -214.46164959 2002.4416398 -217.89003935 2002.43348138 C-218.73141298 2002.43145783 -219.57278661 2002.42943428 -220.4396564 2002.42734941 C-233.75203236 2002.39657509 -247.06392149 2002.41253488 -260.37626848 2002.44798111 C-273.47223025 2002.48184768 -286.56733995 2002.46552032 -299.66317 2002.3961118 C-307.33687055 2002.35691409 -315.00827885 2002.35556372 -322.68189203 2002.41104698 C-328.38708085 2002.44798632 -334.08996182 2002.41153196 -339.79481979 2002.34710063 C-342.08219151 2002.3324581 -344.36986551 2002.34104244 -346.65701381 2002.3762051 C-362.60387882 2002.60360463 -371.45525381 1999.33542098 -383.11129979 1988.37545091 C-386.50298044 1985.30642297 -390.19288175 1982.64470715 -393.87061873 1979.93227975 C-400.42360495 1974.95761892 -406.70814542 1969.73848496 -412.90968123 1964.3346235 C-415.84424885 1961.77981313 -418.84421381 1959.31548792 -421.87061873 1956.86977975 C-426.30395541 1953.26972807 -430.56575219 1949.51824488 -434.78858748 1945.67446725 C-436.87885762 1943.77676805 -438.99047987 1941.9099456 -441.12061873 1940.05727975 C-445.8365959 1935.94494765 -450.48351583 1931.75818628 -455.12061873 1927.55727975 C-456.08354841 1926.68845162 -457.0464781 1925.8196235 -458.03858748 1924.92446725 C-463.10468507 1920.33269868 -468.06523492 1915.67218592 -472.87061873 1910.80727975 C-476.53009532 1907.10580055 -480.2723828 1903.61469625 -484.22218123 1900.22915475 C-488.91506888 1896.09632364 -493.25186747 1891.62538466 -497.30811873 1886.86977975 C-500.56494669 1883.0738906 -504.06697555 1879.57132662 -507.62061873 1876.05727975 C-511.65981799 1872.05834771 -515.57783488 1868.03869371 -519.25733748 1863.701811 C-521.26123954 1861.39543314 -523.33328663 1859.1649899 -525.41895857 1856.93276803 C-530.39646733 1851.60379689 -535.15150678 1846.18075286 -539.71827498 1840.4908735 C-542.57022843 1837.00824416 -545.52888995 1833.62952794 -548.49561873 1830.24477975 C-553.66014693 1824.33198608 -558.58034281 1818.27513935 -563.38624373 1812.0689985 C-565.70006586 1809.08183747 -568.06622345 1806.14092919 -570.44630232 1803.20644967 C-577.37420006 1794.64839142 -583.92052359 1785.83207785 -590.39454451 1776.92739693 C-592.0341043 1774.67607494 -593.68352226 1772.43233797 -595.33546248 1770.19009225 C-604.33783949 1757.91627228 -612.75756643 1745.27246355 -621.12061873 1732.55727975 C-621.61771345 1731.80656197 -622.11480818 1731.0558442 -622.62696638 1730.2823774 C-635.93257542 1710.18750834 -648.98583376 1689.42678431 -660.11650285 1668.03538946 C-661.54963879 1665.40380732 -663.2064739 1663.09726307 -665.0251238 1660.71831207 C-677.82417425 1642.67003851 -675.83359325 1622.13988084 -675.68083346 1600.97902804 C-675.65291181 1595.26078928 -675.69495664 1589.54297075 -675.72775098 1583.82481651 C-675.77556417 1573.81827484 -675.77905537 1563.81249052 -675.7529582 1553.80587975 C-675.72505673 1543.07847647 -675.72279763 1532.35168596 -675.75231161 1521.62431161 C-675.75416312 1520.94457997 -675.75601464 1520.26484834 -675.75792226 1519.56451877 C-675.76554737 1516.79567065 -675.7733529 1514.02682312 -675.78138831 1511.25797616 C-675.86271434 1483.20682766 -675.86721072 1455.15603704 -675.84151426 1427.10480636 C-675.83799499 1423.23386155 -675.83459558 1419.36291667 -675.83131948 1415.49197165 C-675.83066806 1414.72301889 -675.83001664 1413.95406614 -675.82934548 1413.16181178 C-675.81542609 1396.09334753 -675.82573622 1379.0249231 -675.84111901 1361.95646331 C-675.84322603 1359.61794117 -675.845281 1357.27941899 -675.84732043 1354.94089679 C-675.85279708 1348.67149328 -675.85833383 1342.40208982 -675.86397874 1336.13268645 C-675.90309852 1292.3863912 -675.91840866 1248.64013504 -675.88337793 1204.89383332 C-675.88272227 1204.06984397 -675.8820666 1203.24585461 -675.88139107 1202.39689589 C-675.87405599 1193.20931654 -675.86634627 1184.02173753 -675.85848491 1174.83415862 C-675.85777529 1174.0047147 -675.85706567 1173.17527078 -675.85633454 1172.3206922 C-675.85346241 1168.96637279 -675.85058974 1165.61205338 -675.84769409 1162.25773399 C-675.80196136 1109.21238373 -675.8259186 1056.16751957 -675.91139021 1003.12222115 C-675.93288554 989.75627738 -675.95419404 976.39033341 -675.97433558 963.02438752 C-675.97557823 962.20129685 -675.97682089 961.37820618 -675.9781012 960.53017337 C-676.01617743 935.14553128 -676.03567652 909.76092978 -676.03555574 884.37625901 C-676.03555334 883.5788208 -676.03555093 882.78138258 -676.03554845 881.95977957 C-676.03529582 864.45078218 -676.03037483 846.9417885 -676.02121328 829.43279359 C-676.01796182 823.1672142 -676.01498791 816.90163467 -676.01212069 810.63605509 C-676.01140045 809.07746023 -676.01066126 807.51886538 -676.00990305 805.96027054 C-675.99794391 781.17095719 -676.02779371 756.38192046 -676.0780158 731.59266223 C-676.12962069 705.9176502 -676.12497046 680.2431829 -676.05729775 654.56820139 C-676.05022882 651.80501952 -676.04339806 649.04183718 -676.03675451 646.27865426 C-676.03510239 645.60056562 -676.03345027 644.92247698 -676.03174808 644.2238402 C-676.00554248 632.88476704 -676.03823179 621.54661505 -676.08694034 610.20759313 C-676.12524414 600.31573269 -676.1084897 590.42492786 -676.04798593 580.5331815 C-676.0150751 574.90603467 -676.00493494 569.28158495 -676.06201182 563.65456995 C-676.29628852 538.86474881 -675.29821644 519.91095902 -660.85846543 499.08084905 C-658.55770028 495.73985223 -656.61202098 492.27267753 -654.64796248 488.7252485 C-653.45813678 486.7276995 -652.26179899 484.73401101 -651.05811873 482.74477975 C-650.06908552 481.09482003 -650.06908552 481.09482003 -649.06007185 479.41152779 C-647.72387094 477.18575401 -646.38461763 474.96180924 -645.04200544 472.73989693 C-643.20547329 469.69783427 -641.38240867 466.64808729 -639.56202498 463.59634225 C-631.18528672 449.61776378 -622.27402161 436.03779074 -613.12061873 422.55727975 C-612.60370466 421.79302682 -612.0867906 421.02877389 -611.55421248 420.24136178 C-599.35630172 402.22285397 -586.40863857 384.78393237 -573.12061873 367.55727975 C-572.5916197 366.87085396 -572.06262068 366.18442818 -571.51759138 365.47720162 C-565.76857999 358.03573318 -559.83753375 350.78109875 -553.72999373 343.6314985 C-551.35792837 340.84994887 -549.0456916 338.02379313 -546.74561873 335.18227975 C-537.74255994 324.14109535 -528.27634277 313.52738698 -518.56153669 303.11147896 C-517.13474812 301.57251995 -515.72115923 300.02256385 -514.31202498 298.467436 C-509.77565409 293.46429768 -505.17587532 288.55401606 -500.37061873 283.80727975 C-496.66913953 280.14780315 -493.17803523 276.40551567 -489.79249373 272.45571725 C-485.65966262 267.76282959 -481.18872364 263.426031 -476.43311873 259.36977975 C-472.63722981 256.11295198 -469.13466287 252.61092581 -465.62061873 249.05727975 C-461.60021466 244.99634051 -457.55837684 241.05434756 -453.19874373 237.35415475 C-451.03949479 235.48713499 -448.94465185 233.55780068 -446.85279646 231.6158735 C-441.64027959 226.77820967 -436.30091061 222.18931915 -430.75733748 217.72915475 C-428.19641844 215.61971625 -425.74938418 213.42840326 -423.30811873 211.18227975 C-418.84861919 207.11855196 -414.18538145 203.39843998 -409.42066755 199.70522896 C-405.70440344 196.81996488 -402.07837739 193.85869709 -398.49561873 190.80727975 C-390.81949204 184.36463425 -382.75710833 178.43753327 -374.70655623 172.47427193 C-372.225725 170.63519652 -369.75078437 168.78845488 -367.27686873 166.94009225 C-356.41807859 158.85225846 -345.35173629 151.11789946 -334.12061873 143.55727975 C-332.86927879 142.70967938 -331.61797433 141.86202663 -330.36671248 141.014311 C-294.89697889 117.08000226 -257.79139604 95.75799897 -219.66798201 76.36245553 C-217.36792329 75.19200583 -215.06932599 74.01867811 -212.77247419 72.84194771 C-160.45326317 46.05734186 -105.49843399 25.55264422 -49.62843123 7.5533735 C-48.87449583 7.30910622 -48.12056044 7.06483895 -47.34377852 6.81316964 C-45.83656021 6.33057539 -44.32478817 5.86198234 -42.80888727 5.40739606 C-41.04098674 4.84832949 -39.29036632 4.23074145 -37.56483462 3.55208979 C-25.38045769 -0.74844788 -12.75922755 -0.02939561 0 0 Z " fill="#D8D0FC" transform="translate(674.1206187251955,-0.5572797460481524)"/>
<path d="M0 0 C3.58953494 0.0038582 7.17896236 -0.01543799 10.76845262 -0.03163423 C17.87449355 -0.06007868 24.98040895 -0.06725018 32.08650049 -0.06776054 C40.60460965 -0.06937238 49.12261406 -0.09405823 57.64068103 -0.11908038 C76.27721929 -0.17280295 94.91372835 -0.19458366 113.55033263 -0.20837912 C114.51493502 -0.20909328 115.47953741 -0.20980744 116.47337017 -0.21054323 C117.44001103 -0.21125316 118.40665189 -0.21196308 119.4025849 -0.21269452 C129.15443539 -0.22017959 138.9062768 -0.23297427 148.65812053 -0.24648687 C182.08065148 -0.29277298 215.5031758 -0.33136844 248.92573938 -0.34117969 C249.96292378 -0.34149303 251.00010817 -0.34180637 252.06872239 -0.34212921 C256.27160553 -0.34339748 260.47448867 -0.34464128 264.67737181 -0.34588422 C267.84041142 -0.3468228 271.00345104 -0.34777372 274.16649065 -0.34872611 C275.7342852 -0.34918632 275.7342852 -0.34918632 277.33375236 -0.34965582 C311.18246838 -0.35990288 345.03088709 -0.41600766 378.87949502 -0.50012199 C414.71746376 -0.58901585 450.55526424 -0.63769856 486.39334676 -0.64037504 C490.33577288 -0.64081472 494.27819894 -0.64141227 498.22062502 -0.64212402 C499.19126787 -0.64227967 500.16191073 -0.64243532 501.161967 -0.64259569 C516.71404573 -0.64600241 532.2658304 -0.68530632 547.81781223 -0.73771745 C563.48405545 -0.78956636 579.14991703 -0.7998254 594.81621926 -0.76928819 C603.28673597 -0.75383575 611.75634068 -0.75547731 620.22673426 -0.80781349 C684.25860306 -1.18606853 684.25860306 -1.18606853 711.65515885 10.23795799 C716.57196953 12.24987108 721.6185728 13.79763959 726.68406877 15.38540475 C730.04709055 16.50797914 733.40110828 17.65594885 736.75438127 18.80727975 C737.65430803 19.11477151 738.55423479 19.42226327 739.48143206 19.73907296 C758.86709869 26.38024807 777.94083979 33.73769224 796.87938127 41.55727975 C797.53426531 41.8275599 798.18914934 42.09784005 798.86387835 42.37631051 C837.35829784 58.30034911 875.47164154 76.18062814 911.4828969 97.17544381 C914.5242784 98.92913363 917.60077087 100.61333866 920.68260393 102.29458443 C939.29836129 112.46518492 957.18745644 123.87011239 974.87938127 135.55727975 C975.46219866 135.94077584 976.04501604 136.32427193 976.64549456 136.71938912 C999.03677018 151.45795029 1020.65686204 167.18699221 1041.87938127 183.55727975 C1042.56580706 184.08627877 1043.25223284 184.61527779 1043.9594594 185.16030709 C1051.3943077 190.90420399 1058.64339788 196.82895643 1065.78563127 202.93227975 C1068.67489448 205.39643939 1071.61456586 207.79388974 1074.56688127 210.18227975 C1078.95952246 213.75487649 1083.16330233 217.49077979 1087.34422502 221.30727975 C1089.97954159 223.64617395 1092.6921542 225.85443858 1095.44188127 228.05727975 C1099.84412651 231.616278 1103.83431257 235.4038759 1107.78172502 239.45571725 C1109.66641192 241.3439138 1111.59555223 243.08340795 1113.62938127 244.80727975 C1118.02101193 248.56651559 1122.02895716 252.68002048 1126.09007463 256.78750436 C1129.61896939 260.3410731 1133.23975447 263.70473042 1137.05125627 266.95571725 C1141.72861684 271.05340492 1146.03372405 275.51625058 1150.06688127 280.24477975 C1153.32370924 284.04066889 1156.8257381 287.54323287 1160.37938127 291.05727975 C1164.41858054 295.05621179 1168.33659743 299.07586578 1172.01610002 303.4127485 C1174.02000209 305.71912635 1176.09204918 307.9495696 1178.17772112 310.18179146 C1183.15522988 315.5107626 1187.91026933 320.93380663 1192.47703752 326.623686 C1195.32899098 330.10631534 1198.2876525 333.48503155 1201.25438127 336.86977975 C1206.41890948 342.78257341 1211.33910536 348.83942015 1216.14500627 355.045561 C1218.45882841 358.03272202 1220.824986 360.9736303 1223.20506487 363.90810982 C1230.74818876 373.22615925 1237.83155397 382.86187661 1244.87938127 392.55727975 C1245.74925676 393.74885689 1245.74925676 393.74885689 1246.63670549 394.96450631 C1253.25788148 404.03445758 1259.72116517 413.16444508 1265.87938127 422.55727975 C1267.01160796 424.24064323 1268.14389844 425.92396438 1269.27757463 427.60635201 C1287.52119496 454.75939408 1304.12514598 482.89688021 1319.87938127 511.55727975 C1320.59831757 512.57173691 1320.59831757 512.57173691 1321.33177783 513.60668815 C1327.15285492 522.55942332 1326.7283588 531.0686309 1326.65677462 541.36086957 C1326.66546848 543.27932521 1326.67678075 545.19777045 1326.69046376 547.116197 C1326.72046587 552.39190764 1326.71317924 557.66700817 1326.69979749 562.94276288 C1326.69179732 568.68109015 1326.71841987 574.41927435 1326.74058423 580.15754996 C1326.77458908 590.21635001 1326.78615208 600.27498345 1326.78302965 610.33383767 C1326.77968646 621.1253641 1326.7889848 631.91675723 1326.81413469 642.70825593 C1326.81650301 643.73134104 1326.81650301 643.73134104 1326.81891918 644.77509455 C1326.8253859 647.55311786 1326.831934 650.33114097 1326.83858815 653.10916384 C1326.90787406 682.08149571 1326.93433035 711.05376905 1326.94522667 740.02617465 C1326.94640361 743.14439445 1326.94759117 746.26261424 1326.94878683 749.38083402 C1326.94922503 750.54156595 1326.94922503 750.54156595 1326.94967208 751.72574701 C1326.95630296 768.88087511 1326.97300252 786.03598881 1326.99129314 803.19110786 C1326.998797 810.25733845 1327.00603921 817.32356932 1327.01329694 824.38980017 C1327.01409994 825.17059338 1327.01490295 825.95138659 1327.01573028 826.7558402 C1327.06162317 871.49905828 1327.09358836 916.24226868 1327.09754 960.98551099 C1327.09769769 962.65984165 1327.09785624 964.33417231 1327.09801565 966.00850297 C1327.09872435 973.56776302 1327.09935877 981.12702307 1327.0999846 988.68628312 C1327.10026554 992.0570577 1327.10055503 995.42783228 1327.1008461 998.79860685 C1327.10098936 1000.48574106 1327.10112811 1002.17287526 1327.10126237 1003.86000946 C1327.10552869 1057.18346921 1327.16358153 1110.50662421 1327.26512346 1163.82998482 C1327.34083244 1203.59883826 1327.41216191 1243.36763427 1327.42925844 1283.13656346 C1327.42960522 1283.93771079 1327.42995199 1284.73885812 1327.43030927 1285.56428265 C1327.4377618 1303.15468163 1327.44111726 1320.7450793 1327.44068494 1338.33547979 C1327.44057135 1344.63037857 1327.44078114 1350.92527733 1327.44115653 1357.2201761 C1327.44124799 1358.78612265 1327.44132381 1360.35206919 1327.44138393 1361.91801573 C1327.44251664 1386.83516684 1327.48517319 1411.75202879 1327.54891417 1436.66909169 C1327.6128579 1461.78075317 1327.63151172 1486.89203546 1327.5890298 1512.00375411 C1327.58315061 1515.48093135 1327.57775598 1518.95810918 1327.5726491 1522.43528763 C1327.57162881 1523.11685108 1327.57060853 1523.79841453 1327.56955732 1524.50063142 C1327.55383209 1535.90466046 1327.59328361 1547.30779979 1327.64772611 1558.71171386 C1327.69131344 1568.65636097 1327.68359899 1578.60013293 1327.63497166 1588.54475398 C1327.60872585 1594.20384185 1327.60392389 1599.86056411 1327.66181851 1605.51947002 C1327.89015957 1629.33010467 1327.7699201 1648.27189215 1313.51797146 1668.23716519 C1311.26084393 1671.43307988 1309.39959739 1674.77308731 1307.50438127 1678.1939985 C1306.30211565 1680.21454834 1305.09396321 1682.23160936 1303.87938127 1684.24477975 C1303.21406389 1685.35595162 1302.54874651 1686.4671235 1301.86326799 1687.61196725 C1300.51435717 1689.86154137 1299.16271679 1692.10948148 1297.80809221 1694.35561959 C1295.9912866 1697.37151691 1294.18784232 1700.39499894 1292.38719377 1703.420561 C1272.39006431 1736.84894217 1249.82579391 1768.85179902 1225.87938127 1799.55727975 C1224.98872443 1800.70699466 1224.09810044 1801.85673503 1223.20750627 1803.0064985 C1217.7921791 1809.97276615 1212.21903844 1816.7740895 1206.48875627 1823.483061 C1204.11669092 1826.26461062 1201.80445415 1829.09076636 1199.50438127 1831.93227975 C1190.50132249 1842.97346414 1181.03510532 1853.58717251 1171.32029924 1864.00308053 C1169.89351067 1865.54203954 1168.47992178 1867.09199564 1167.07078752 1868.6471235 C1162.53441664 1873.65026181 1157.93463787 1878.56054343 1153.12938127 1883.30727975 C1149.42790208 1886.96675634 1145.93679778 1890.70904382 1142.55125627 1894.65884225 C1138.41842517 1899.3517299 1133.94748619 1903.68852849 1129.19188127 1907.74477975 C1125.39599213 1911.00160771 1121.89342815 1914.50363657 1118.37938127 1918.05727975 C1114.38044924 1922.09647901 1110.36079524 1926.0144959 1106.02391252 1929.6939985 C1103.71753467 1931.69790056 1101.48709142 1933.76994765 1099.25486956 1935.85561959 C1093.93070412 1940.82863961 1088.51246822 1945.57952746 1082.82860002 1950.14321725 C1079.26032955 1953.06400023 1075.78954459 1956.08655172 1072.31688127 1959.11977975 C1066.61753755 1964.08583302 1060.8345981 1968.899058 1054.87938127 1973.55727975 C1053.33941303 1974.77877288 1051.79951408 1976.00035421 1050.26066973 1977.22326293 C1049.14438327 1978.10244291 1048.0219458 1978.97387681 1046.89309767 1979.83686858 C1043.26010124 1982.62204902 1039.78959444 1985.51100783 1036.38550495 1988.57262801 C1023.00092396 2000.21663451 1013.13314294 2002.88263552 995.68436346 2002.56515137 C993.29985126 2002.58127012 990.91537814 2002.60439236 988.53099287 2002.63380549 C982.68926385 2002.68784281 976.85109866 2002.66842678 971.00942306 2002.6170884 C963.95382179 2002.55941288 956.89943466 2002.59625409 949.8438164 2002.63520372 C936.66176711 2002.70528443 923.48072672 2002.70003114 910.29861841 2002.65298287 C896.9504168 2002.60561794 883.60285846 2002.59325579 870.25459871 2002.62310998 C869.40981688 2002.62497578 868.56503505 2002.62684158 867.69465376 2002.62876392 C864.25368727 2002.63647998 860.81272147 2002.64444542 857.37175628 2002.6527265 C825.36185793 2002.72972125 793.35241215 2002.72838816 761.3424798 2002.67687432 C730.49873296 2002.62728404 699.65519523 2002.60474663 668.81140909 2002.62045495 C666.87322 2002.62140055 664.9350309 2002.62234187 662.9968418 2002.62327892 C655.20782574 2002.62707936 647.41880976 2002.63103622 639.62979389 2002.63520771 C617.85743381 2002.64676615 596.0850739 2002.65283669 574.31271086 2002.65466325 C573.32131292 2002.65474765 572.32991499 2002.65483206 571.3084747 2002.65491902 C539.72569027 2002.65721393 508.14297012 2002.63535801 476.56021032 2002.59675233 C475.5360822 2002.59550346 474.51195408 2002.59425459 473.45679177 2002.59296788 C456.82625182 2002.57261174 440.19571351 2002.55098725 423.56517529 2002.52926837 C357.60133191 2002.44320694 291.63793012 2002.43263841 225.67405901 2002.49233834 C209.04828018 2002.50731801 192.42250129 2002.52217812 175.79672155 2002.5361139 C174.26111227 2002.53740738 174.26111227 2002.53740738 172.69448058 2002.53872699 C141.14153553 2002.56511245 109.58862689 2002.57403342 78.03567228 2002.56369034 C77.04504545 2002.56336593 76.05441861 2002.56304151 75.03377278 2002.56270726 C53.28732523 2002.55537594 31.54088186 2002.54344771 9.79443906 2002.52739992 C2.01338893 2002.52166846 -5.76766134 2002.51613708 -13.54871164 2002.51064458 C-15.48439089 2002.50926741 -17.42007012 2002.50787068 -19.35574933 2002.50645429 C-48.27744707 2002.48530788 -77.19900096 2002.49429108 -106.120689 2002.5236341 C-139.94893758 2002.5579184 -173.77670252 2002.54473874 -207.6048715 2002.45851019 C-211.03326032 2002.44996694 -214.46164959 2002.4416398 -217.89003935 2002.43348138 C-218.73141298 2002.43145783 -219.57278661 2002.42943428 -220.4396564 2002.42734941 C-233.75203236 2002.39657509 -247.06392149 2002.41253488 -260.37626848 2002.44798111 C-273.47223025 2002.48184768 -286.56733995 2002.46552032 -299.66317 2002.3961118 C-307.33687055 2002.35691409 -315.00827885 2002.35556372 -322.68189203 2002.41104698 C-328.38708085 2002.44798632 -334.08996182 2002.41153196 -339.79481979 2002.34710063 C-342.08219151 2002.3324581 -344.36986551 2002.34104244 -346.65701381 2002.3762051 C-362.60387882 2002.60360463 -371.45525381 1999.33542098 -383.11129979 1988.37545091 C-386.50298044 1985.30642297 -390.19288175 1982.64470715 -393.87061873 1979.93227975 C-400.42360495 1974.95761892 -406.70814542 1969.73848496 -412.90968123 1964.3346235 C-415.84424885 1961.77981313 -418.84421381 1959.31548792 -421.87061873 1956.86977975 C-426.30395541 1953.26972807 -430.56575219 1949.51824488 -434.78858748 1945.67446725 C-436.87885762 1943.77676805 -438.99047987 1941.9099456 -441.12061873 1940.05727975 C-445.8365959 1935.94494765 -450.48351583 1931.75818628 -455.12061873 1927.55727975 C-456.08354841 1926.68845162 -457.0464781 1925.8196235 -458.03858748 1924.92446725 C-463.10468507 1920.33269868 -468.06523492 1915.67218592 -472.87061873 1910.80727975 C-476.53009532 1907.10580055 -480.2723828 1903.61469625 -484.22218123 1900.22915475 C-488.91506888 1896.09632364 -493.25186747 1891.62538466 -497.30811873 1886.86977975 C-500.56494669 1883.0738906 -504.06697555 1879.57132662 -507.62061873 1876.05727975 C-511.65981799 1872.05834771 -515.57783488 1868.03869371 -519.25733748 1863.701811 C-521.26123954 1861.39543314 -523.33328663 1859.1649899 -525.41895857 1856.93276803 C-530.39646733 1851.60379689 -535.15150678 1846.18075286 -539.71827498 1840.4908735 C-542.57022843 1837.00824416 -545.52888995 1833.62952794 -548.49561873 1830.24477975 C-553.66014693 1824.33198608 -558.58034281 1818.27513935 -563.38624373 1812.0689985 C-565.70006586 1809.08183747 -568.06622345 1806.14092919 -570.44630232 1803.20644967 C-577.37420006 1794.64839142 -583.92052359 1785.83207785 -590.39454451 1776.92739693 C-592.0341043 1774.67607494 -593.68352226 1772.43233797 -595.33546248 1770.19009225 C-604.33783949 1757.91627228 -612.75756643 1745.27246355 -621.12061873 1732.55727975 C-621.61771345 1731.80656197 -622.11480818 1731.0558442 -622.62696638 1730.2823774 C-635.93257542 1710.18750834 -648.98583376 1689.42678431 -660.11650285 1668.03538946 C-661.54963879 1665.40380732 -663.2064739 1663.09726307 -665.0251238 1660.71831207 C-677.82417425 1642.67003851 -675.83359325 1622.13988084 -675.68083346 1600.97902804 C-675.65291181 1595.26078928 -675.69495664 1589.54297075 -675.72775098 1583.82481651 C-675.77556417 1573.81827484 -675.77905537 1563.81249052 -675.7529582 1553.80587975 C-675.72505673 1543.07847647 -675.72279763 1532.35168596 -675.75231161 1521.62431161 C-675.75416312 1520.94457997 -675.75601464 1520.26484834 -675.75792226 1519.56451877 C-675.76554737 1516.79567065 -675.7733529 1514.02682312 -675.78138831 1511.25797616 C-675.86271434 1483.20682766 -675.86721072 1455.15603704 -675.84151426 1427.10480636 C-675.83799499 1423.23386155 -675.83459558 1419.36291667 -675.83131948 1415.49197165 C-675.83066806 1414.72301889 -675.83001664 1413.95406614 -675.82934548 1413.16181178 C-675.81542609 1396.09334753 -675.82573622 1379.0249231 -675.84111901 1361.95646331 C-675.84322603 1359.61794117 -675.845281 1357.27941899 -675.84732043 1354.94089679 C-675.85279708 1348.67149328 -675.85833383 1342.40208982 -675.86397874 1336.13268645 C-675.90309852 1292.3863912 -675.91840866 1248.64013504 -675.88337793 1204.89383332 C-675.88272227 1204.06984397 -675.8820666 1203.24585461 -675.88139107 1202.39689589 C-675.87405599 1193.20931654 -675.86634627 1184.02173753 -675.85848491 1174.83415862 C-675.85777529 1174.0047147 -675.85706567 1173.17527078 -675.85633454 1172.3206922 C-675.85346241 1168.96637279 -675.85058974 1165.61205338 -675.84769409 1162.25773399 C-675.80196136 1109.21238373 -675.8259186 1056.16751957 -675.91139021 1003.12222115 C-675.93288554 989.75627738 -675.95419404 976.39033341 -675.97433558 963.02438752 C-675.97557823 962.20129685 -675.97682089 961.37820618 -675.9781012 960.53017337 C-676.01617743 935.14553128 -676.03567652 909.76092978 -676.03555574 884.37625901 C-676.03555334 883.5788208 -676.03555093 882.78138258 -676.03554845 881.95977957 C-676.03529582 864.45078218 -676.03037483 846.9417885 -676.02121328 829.43279359 C-676.01796182 823.1672142 -676.01498791 816.90163467 -676.01212069 810.63605509 C-676.01140045 809.07746023 -676.01066126 807.51886538 -676.00990305 805.96027054 C-675.99794391 781.17095719 -676.02779371 756.38192046 -676.0780158 731.59266223 C-676.12962069 705.9176502 -676.12497046 680.2431829 -676.05729775 654.56820139 C-676.05022882 651.80501952 -676.04339806 649.04183718 -676.03675451 646.27865426 C-676.03510239 645.60056562 -676.03345027 644.92247698 -676.03174808 644.2238402 C-676.00554248 632.88476704 -676.03823179 621.54661505 -676.08694034 610.20759313 C-676.12524414 600.31573269 -676.1084897 590.42492786 -676.04798593 580.5331815 C-676.0150751 574.90603467 -676.00493494 569.28158495 -676.06201182 563.65456995 C-676.29628852 538.86474881 -675.29821644 519.91095902 -660.85846543 499.08084905 C-658.55770028 495.73985223 -656.61202098 492.27267753 -654.64796248 488.7252485 C-653.45813678 486.7276995 -652.26179899 484.73401101 -651.05811873 482.74477975 C-650.06908552 481.09482003 -650.06908552 481.09482003 -649.06007185 479.41152779 C-647.72387094 477.18575401 -646.38461763 474.96180924 -645.04200544 472.73989693 C-643.20547329 469.69783427 -641.38240867 466.64808729 -639.56202498 463.59634225 C-631.18528672 449.61776378 -622.27402161 436.03779074 -613.12061873 422.55727975 C-612.60370466 421.79302682 -612.0867906 421.02877389 -611.55421248 420.24136178 C-599.35630172 402.22285397 -586.40863857 384.78393237 -573.12061873 367.55727975 C-572.5916197 366.87085396 -572.06262068 366.18442818 -571.51759138 365.47720162 C-565.76857999 358.03573318 -559.83753375 350.78109875 -553.72999373 343.6314985 C-551.35792837 340.84994887 -549.0456916 338.02379313 -546.74561873 335.18227975 C-537.74255994 324.14109535 -528.27634277 313.52738698 -518.56153669 303.11147896 C-517.13474812 301.57251995 -515.72115923 300.02256385 -514.31202498 298.467436 C-509.77565409 293.46429768 -505.17587532 288.55401606 -500.37061873 283.80727975 C-496.66913953 280.14780315 -493.17803523 276.40551567 -489.79249373 272.45571725 C-485.65966262 267.76282959 -481.18872364 263.426031 -476.43311873 259.36977975 C-472.63722981 256.11295198 -469.13466287 252.61092581 -465.62061873 249.05727975 C-461.60021466 244.99634051 -457.55837684 241.05434756 -453.19874373 237.35415475 C-451.03949479 235.48713499 -448.94465185 233.55780068 -446.85279646 231.6158735 C-441.64027959 226.77820967 -436.30091061 222.18931915 -430.75733748 217.72915475 C-428.19641844 215.61971625 -425.74938418 213.42840326 -423.30811873 211.18227975 C-418.84861919 207.11855196 -414.18538145 203.39843998 -409.42066755 199.70522896 C-405.70440344 196.81996488 -402.07837739 193.85869709 -398.49561873 190.80727975 C-390.81949204 184.36463425 -382.75710833 178.43753327 -374.70655623 172.47427193 C-372.225725 170.63519652 -369.75078437 168.78845488 -367.27686873 166.94009225 C-356.41807859 158.85225846 -345.35173629 151.11789946 -334.12061873 143.55727975 C-332.86927879 142.70967938 -331.61797433 141.86202663 -330.36671248 141.014311 C-294.89697889 117.08000226 -257.79139604 95.75799897 -219.66798201 76.36245553 C-217.36792329 75.19200583 -215.06932599 74.01867811 -212.77247419 72.84194771 C-160.45326317 46.05734186 -105.49843399 25.55264422 -49.62843123 7.5533735 C-48.87449583 7.30910622 -48.12056044 7.06483895 -47.34377852 6.81316964 C-45.83656021 6.33057539 -44.32478817 5.86198234 -42.80888727 5.40739606 C-41.04098674 4.84832949 -39.29036632 4.23074145 -37.56483462 3.55208979 C-25.38045769 -0.74844788 -12.75922755 -0.02939561 0 0 Z M241.38408098 52.30404488 C238.7554799 52.56980666 236.12591779 52.82408094 233.49608049 53.07729928 C166.31278141 59.62693159 100.21349423 73.3690116 35.92650042 93.90420357 C33.96199247 94.53092495 31.99609167 95.15306691 30.0297719 95.77407662 C-14.26164537 109.83595817 -56.71934242 128.10750332 -98.33350935 148.67642037 C-100.9767941 149.97928531 -103.62714968 151.26756238 -106.27686873 152.55727975 C-119.527241 159.04288464 -132.35721963 166.165063 -145.12061873 173.55727975 C-146.29268906 174.23296136 -147.46489405 174.90840942 -148.63722029 175.58364693 C-163.34278887 184.06065661 -177.88294631 192.70963231 -192.00245466 202.14321725 C-193.98639086 203.46767074 -195.97759164 204.78019491 -197.97218123 206.08852975 C-213.37720899 216.22433082 -228.45173812 226.84830687 -243.11573591 238.02895943 C-245.24166744 239.64955507 -247.37243897 241.26365833 -249.50343123 242.87759225 C-257.50863086 248.95429451 -265.38652297 255.13809981 -273.12061873 261.55727975 C-274.89105707 262.99526618 -276.66190069 264.43275379 -278.43311873 265.86977975 C-288.07872601 273.7678947 -297.49578843 281.90845283 -306.68311873 290.3346235 C-308.76334598 292.23149738 -310.8661877 294.09120917 -312.99561873 295.93227975 C-325.09288773 306.49407668 -336.46904852 317.74834909 -347.80665388 329.11294381 C-350.50782759 331.819513 -353.21435301 334.52064871 -355.92139998 337.22134225 C-357.66260637 338.96320894 -359.40350282 340.70538555 -361.14405623 342.44790475 C-362.34111692 343.6419291 -362.34111692 343.6419291 -363.56236067 344.86007516 C-367.74449243 349.05959058 -371.77426069 353.33424616 -375.63410749 357.83265511 C-377.85462624 360.40886258 -380.17746643 362.88107271 -382.49561873 365.36977975 C-386.83942085 370.06622629 -390.92478299 374.92002929 -394.93702498 379.904936 C-397.1145894 382.54995612 -399.37380635 385.08940499 -401.68311873 387.61977975 C-406.05726641 392.43209766 -410.11265513 397.4384132 -414.12061873 402.55727975 C-414.9848226 403.65263132 -415.84942791 404.74766625 -416.71436873 405.842436 C-419.52683538 409.40595908 -422.32531361 412.98028752 -425.12061873 416.55727975 C-425.53569685 417.0869233 -425.95077498 417.61656686 -426.37843123 418.16226021 C-433.33053286 427.04581266 -439.9632614 436.14502887 -446.52100935 445.32241646 C-447.9905008 447.37548801 -449.46858987 449.42204709 -450.94874373 451.467436 C-478.4129273 489.64134863 -502.10376472 530.34853841 -523.41895857 572.22134225 C-524.92965354 575.18291128 -526.45427336 578.13671394 -527.98389998 581.08852975 C-546.35011745 616.81164702 -561.19674095 654.56153269 -574.12061873 692.55727975 C-574.35287153 693.23965707 -574.58512434 693.92203438 -574.82441511 694.6250898 C-602.73180032 776.83848564 -619.21865377 862.78857549 -624.43867674 996.9212362 C-624.43303662 999.84991591 -624.43021605 1002.77858982 -624.42759504 1005.70727364 C-624.39260242 1032.59805261 -624.20658799 1059.38143843 -621.37385359 1086.15011422 C-621.10688735 1088.68780563 -620.8529532 1091.22659185 -620.60059919 1093.76577584 C-612.05818672 1178.79062305 -592.93439167 1263.24053945 -552.12061873 1366.55727975 C-551.71840101 1367.52576852 -551.71840101 1367.52576852 -551.30805769 1368.51382271 C-523.52467094 1435.39351541 -487.74520922 1499.01178958 -445.12061873 1557.55727975 C-444.5700279 1558.31605416 -444.01943708 1559.07482857 -443.45216169 1559.85659615 C-433.76439911 1573.18360638 -423.76325868 1586.20654787 -413.28858748 1598.92446725 C-411.847475 1600.67457501 -410.41252469 1602.42977587 -408.98389998 1604.19009225 C-400.23799802 1614.96152625 -391.23443357 1625.47977974 -381.78858748 1635.64321725 C-379.72853331 1637.89329105 -377.70912118 1640.16308775 -375.70655623 1642.46352975 C-364.57030938 1655.2288487 -352.58253367 1667.19850649 -340.62061873 1679.18227975 C-339.6371295 1680.16965127 -339.6371295 1680.16965127 -338.6337718 1681.17696969 C-329.47084925 1690.40340641 -329.47084925 1690.40340641 -319.81641951 1699.10659615 C-316.88636407 1701.61313076 -314.11226977 1704.2868848 -311.30811873 1706.93227975 C-306.26496054 1711.65601084 -301.09370897 1716.12562265 -295.69874373 1720.44790475 C-293.09635583 1722.57713121 -290.60486371 1724.79177332 -288.12061873 1727.05727975 C-282.94520645 1731.76146139 -277.56988477 1736.17539571 -272.12061873 1740.55727975 C-270.9642628 1741.4946491 -269.80801793 1742.43215545 -268.65186873 1743.36977975 C-242.37162303 1764.61361956 -214.71163951 1784.545811 -186.12061873 1802.55727975 C-185.33139021 1803.0555024 -184.54216169 1803.55372506 -183.72901716 1804.06704537 C-162.6392071 1817.34428369 -141.10693955 1829.82600714 -119.12061873 1841.55727975 C-117.77097029 1842.27947701 -117.77097029 1842.27947701 -116.39405623 1843.01626412 C-80.77739542 1862.01689015 -44.03985163 1878.688323 -6.12061873 1892.55727975 C-5.18723677 1892.89892159 -5.18723677 1892.89892159 -4.23499861 1893.24746529 C71.89963136 1921.06779787 150.85094969 1940.023772 243.56688127 1948.80727975 C244.96338915 1948.93190591 244.96338915 1948.93190591 246.3881093 1949.05904977 C249.09701873 1949.29806235 251.80638257 1949.53074717 254.51610002 1949.76040475 C255.28166719 1949.82684182 256.04723436 1949.89327889 256.83600054 1949.96172921 C272.05346531 1951.21459978 287.2634102 1951.72184333 302.52781877 1951.76040475 C304.26151246 1951.76742912 305.9952059 1951.77451592 307.7288991 1951.78166024 C313.23739698 1951.80105036 318.7458527 1951.80609447 324.25438127 1951.80727975 C325.19362444 1951.8077216 326.1328676 1951.80816346 327.10057268 1951.8086187 C354.94956634 1951.81548739 382.65230171 1951.60545061 410.38694963 1948.80727975 C412.98064291 1948.54712283 415.57533343 1948.29946322 418.1703969 1948.0533735 C457.01164478 1944.3241586 495.89092126 1938.53596919 533.87938127 1929.55727975 C535.12332659 1929.26917428 536.3672719 1928.98106881 537.64891252 1928.68423287 C617.0624619 1910.28745444 693.54484693 1882.52411242 789.27049456 1832.04311959 C792.34566085 1830.29171944 795.44898436 1828.59708128 798.55858049 1826.90786568 C827.83599176 1810.945679 855.91300413 1792.15085155 882.87938127 1772.55727975 C883.64250627 1772.00378854 884.40563127 1771.45029732 885.19188127 1770.88003365 C902.32914012 1758.42187814 918.90731642 1745.37244011 935.04368792 1731.64101998 C938.44882256 1728.74834524 941.89663902 1725.91913507 945.37938127 1723.11977975 C950.13429177 1719.25337807 954.64599772 1715.17199107 959.11375627 1710.98135201 C962.64888966 1707.66716447 966.26317944 1704.46004444 969.91673479 1701.27700631 C981.56784531 1691.06797253 992.48344634 1680.05827467 1003.44188127 1669.11977975 C1004.10190142 1668.4623478 1004.76192156 1667.80491585 1005.44194231 1667.12756173 C1014.66705316 1657.96636815 1014.66705316 1657.96636815 1023.36839495 1648.31338326 C1026.20863928 1645.01238512 1029.25304881 1641.89863002 1032.25438127 1638.74477975 C1037.35578524 1633.34778744 1042.20817193 1627.87817853 1046.83641252 1622.0689985 C1048.95747778 1619.46126435 1051.17538533 1616.97676597 1053.44188127 1614.49477975 C1057.01703703 1610.56210842 1060.38829393 1606.52492509 1063.67625627 1602.3502485 C1065.27781284 1600.31990639 1066.89055911 1598.30323105 1068.52000627 1596.295561 C1076.28614038 1586.70770842 1083.74110522 1576.90293062 1091.08152971 1566.98599068 C1092.20447407 1565.46900936 1093.32973865 1563.9537396 1094.45848284 1562.44106881 C1111.14192865 1540.05444113 1126.51580902 1516.48866869 1140.87938127 1492.55727975 C1141.40257952 1491.69199654 1141.92577776 1490.82671334 1142.46483049 1489.93520943 C1150.51400679 1476.60594715 1158.09171171 1463.05648199 1165.40965471 1449.31313912 C1166.71608838 1446.86346749 1168.03373072 1444.42032978 1169.35594377 1441.97915475 C1202.01169478 1381.30555823 1227.25299898 1316.13158933 1244.87938127 1249.55727975 C1245.08500689 1248.78378182 1245.2906325 1248.0102839 1245.50248918 1247.21334664 C1259.10636554 1195.93459095 1268.77714936 1143.65123998 1273.66649065 1090.80380074 C1273.8768133 1088.58437822 1274.10261071 1086.36703784 1274.33250627 1084.1495649 C1279.97671673 1028.84378971 1279.93411755 970.28600322 1274.13261614 914.99630562 C1273.86409186 912.41002011 1273.61059804 909.82254554 1273.35936174 907.23452584 C1265.03898855 822.27802138 1245.44254869 738.57933369 1179.49168596 578.82876412 C1177.98882453 575.77934814 1176.4991644 572.72384138 1175.01219377 569.66665475 C1168.95525186 557.29297028 1162.35475573 545.28594643 1155.48045549 533.34927193 C1153.94343154 530.66897215 1152.42561368 527.97883875 1150.91453752 525.28384225 C1133.60334242 494.48608604 1113.93582168 464.92175106 1092.87938127 436.55727975 C1092.37648577 435.87713814 1091.87359026 435.19699654 1091.35545549 434.49624459 C1074.05069091 411.12193929 1055.75957336 388.42312894 1036.09422502 366.98696725 C1034.2393131 364.95212559 1032.42509329 362.89406728 1030.62938127 360.80727975 C1019.64247968 348.21577637 1007.85321391 336.37076732 996.02733049 324.57485787 C993.48334799 322.03629124 990.94482999 319.49234644 988.40672502 316.94790475 C986.76511887 315.30695862 985.12320297 313.66632231 983.48094377 312.02602975 C982.36195192 310.90400155 982.36195192 310.90400155 981.22035418 309.75930611 C977.1455745 305.70249067 972.98374314 301.80885069 968.62185869 298.06164376 C966.041114 295.83356355 963.56172457 293.50614776 961.06688127 291.18227975 C956.37043473 286.83847762 951.51663173 282.75311548 946.53172502 278.7408735 C943.8867049 276.56330907 941.34725603 274.30409212 938.81688127 271.99477975 C934.89395763 268.42848552 930.86695642 265.06485467 926.70360002 261.78384225 C924.57105907 260.10258589 922.45009791 258.41039298 920.33641252 256.70571725 C913.19882788 250.95274853 906.01090622 245.29567998 898.63182268 239.85317818 C896.60915506 238.35745239 894.59410278 236.85170794 892.57860002 235.34634225 C881.53649536 227.12462503 870.29899823 219.24434541 858.87938127 211.55727975 C857.59290388 210.68621414 856.30644448 209.81512197 855.02000627 208.9439985 C797.26157042 169.98168476 734.87863879 137.57805765 669.87938127 112.55727975 C668.70955706 112.1067524 667.53973284 111.65622506 666.3344594 111.19204537 C631.5514759 97.90351012 596.01227212 86.5498833 559.87938127 77.55727975 C559.10759539 77.36518929 558.3358095 77.17309884 557.54063616 76.97518746 C482.8921592 58.48589244 406.7905498 49.08233854 329.89816103 49.23922173 C327.08413075 49.24487058 324.27010652 49.24768575 321.45607195 49.25030343 C294.68550904 49.28648912 268.04150847 49.59964883 241.38408098 52.30404488 Z " fill="#000000" transform="translate(674.1206187251955,-0.5572797460481524)"/>
<path d="M0 0 C1.31935547 -0.00773438 2.63871094 -0.01546875 3.99804688 -0.0234375 C12.02789319 -0.00752894 19.56875114 0.6811808 27.4375 2.25 C28.69820312 2.46140625 29.95890625 2.6728125 31.2578125 2.890625 C59.24809892 8.05195441 83.97835917 20.71710564 105.4375 39.25 C106.23929688 39.92933594 107.04109375 40.60867188 107.8671875 41.30859375 C132.71252363 62.76592949 150.77115493 94.65033183 158.91552734 126.24267578 C159.4241572 128.19868825 159.97136364 130.14454137 160.51953125 132.08984375 C168.96798732 163.25736895 169.20768651 197.90603151 162.375 229.375 C162.22199432 230.09033905 162.06898865 230.8056781 161.91134644 231.54269409 C157.93096915 249.97439032 151.2710157 266.62220574 142.4375 283.25 C141.94765625 284.219375 141.4578125 285.18875 140.953125 286.1875 C131.49382875 304.46838713 117.25260024 321.15640881 101.4375 334.25 C100.90527832 334.69263184 100.37305664 335.13526367 99.82470703 335.59130859 C74.7562049 356.04173524 41.85028326 368.7728402 9.4375 369.25 C8.7273877 369.26901367 8.01727539 369.28802734 7.28564453 369.30761719 C-10.7331164 369.77804065 -28.24562674 368.39074939 -45.5625 363.25 C-46.2548877 363.0545459 -46.94727539 362.8590918 -47.66064453 362.65771484 C-69.69930698 356.37307701 -89.65435519 344.88458037 -106.390625 329.26953125 C-108.29454605 327.49915862 -110.24141151 325.83614232 -112.25 324.1875 C-127.48762463 311.14692822 -138.17474638 292.56936298 -146.80078125 274.78125 C-148.41449632 271.38824699 -148.41449632 271.38824699 -150.06640625 268.90625 C-152.32894274 264.88921394 -153.69876892 260.60264594 -155.1875 256.25 C-155.49945312 255.36054687 -155.81140625 254.47109375 -156.1328125 253.5546875 C-157.5658102 249.41628896 -158.69836476 245.57067621 -159.5625 241.25 C-159.8925 281.84 -160.2225 322.43 -160.5625 364.25 C-183.6625 364.25 -206.7625 364.25 -230.5625 364.25 C-230.58437378 353.87916992 -230.58437378 353.87916992 -230.60668945 343.29882812 C-230.65554224 321.12682467 -230.71897756 298.95487862 -230.79148628 276.78294083 C-230.8027532 273.33364711 -230.81389186 269.88435299 -230.82495117 266.43505859 C-230.8282567 265.40510603 -230.8282567 265.40510603 -230.831629 264.35434633 C-230.86691267 253.26537442 -230.89182705 242.17640257 -230.91284702 231.08739549 C-230.93468051 219.69222504 -230.96802088 208.29714073 -231.01120156 196.90202856 C-231.03506944 190.50865337 -231.05384036 184.11535776 -231.06011391 177.72193909 C-231.06619389 171.69401852 -231.08629851 165.66630137 -231.11677551 159.63845634 C-231.12550921 157.4359879 -231.1292881 155.23349281 -231.12750816 153.03100777 C-231.11479887 130.03096261 -233.24803433 108.63270938 -249.65625 91 C-266.68852431 74.70825935 -288.26934092 74.79744482 -310.31689453 75.15673828 C-330.16952563 75.72719902 -348.68545221 82.77788155 -362.5625 97.25 C-381.53685488 117.88758098 -385.18387406 146.16962497 -385.10839844 173.07324219 C-385.11715922 175.17469539 -385.12765359 177.27614195 -385.13972473 179.37757874 C-385.1672987 185.01469868 -385.17099581 190.65159791 -385.17000484 196.28877544 C-385.17315883 202.20511867 -385.19882814 208.12136604 -385.22198486 214.03765869 C-385.26235953 225.21072913 -385.28284176 236.38374148 -385.29595876 247.55687356 C-385.31189196 260.28991593 -385.35033385 273.02286034 -385.39055204 285.75584555 C-385.47269712 311.92055014 -385.52397741 338.08519231 -385.5625 364.25 C-408.6625 364.25 -431.7625 364.25 -455.5625 364.25 C-455.5625 245.78 -455.5625 127.31 -455.5625 5.25 C-432.7925 5.25 -410.0225 5.25 -386.5625 5.25 C-386.5625 19.11 -386.5625 32.97 -386.5625 47.25 C-385.9025 47.25 -385.2425 47.25 -384.5625 47.25 C-384.29566406 46.66605469 -384.02882813 46.08210937 -383.75390625 45.48046875 C-381.65925639 41.55900951 -378.56423217 38.4994759 -375.5625 35.25 C-374.57056641 34.15945313 -374.57056641 34.15945313 -373.55859375 33.046875 C-355.01099704 13.50870682 -327.30496743 2.26505651 -300.62158203 1.12426758 C-263.19766507 0.21240119 -226.72718835 8.18139645 -198.76098633 34.53637695 C-182.94207018 49.97077115 -172.71430363 69.14133029 -166.5625 90.25 C-166.26601562 91.25417969 -165.96953125 92.25835938 -165.6640625 93.29296875 C-162.20890738 105.96757242 -161.33828694 119.18411472 -160.5625 132.25 C-160.26859375 130.97382812 -160.26859375 130.97382812 -159.96875 129.671875 C-154.52868392 107.63022796 -144.89339533 86.64418952 -131.5625 68.25 C-131.18464355 67.7240625 -130.80678711 67.198125 -130.41748047 66.65625 C-105.52220294 32.37091448 -70.10186613 10.12374889 -28.5625 2.25 C-27.58144287 2.06308594 -26.60038574 1.87617187 -25.58959961 1.68359375 C-17.03133481 0.20284788 -8.67253684 -0.05098993 0 0 Z " fill="#6235EA" transform="translate(1416.5625,898.75)"/>
<path d="M0 0 C23.76 0 47.52 0 72 0 C72 175.23 72 350.46 72 531 C48.24 531 24.48 531 0 531 C-0.33 512.19 -0.66 493.38 -1 474 C-3.97 476.97 -6.94 479.94 -10 483 C-12.14784189 484.86179753 -14.257364 486.64448629 -16.5 488.375 C-17.08475098 488.8285083 -17.66950195 489.2820166 -18.27197266 489.74926758 C-36.04760609 503.30138066 -55.33658853 512.7179227 -76 521 C-77.16917969 521.474375 -78.33835937 521.94875 -79.54296875 522.4375 C-89.26523472 526.15449535 -99.30158984 528.30869095 -109.46582031 530.45654297 C-111.60528875 530.91535383 -113.73727027 531.4088727 -115.8671875 531.91015625 C-150.62778666 539.75296717 -191.046816 538.89810885 -225 528 C-225.78890625 527.75910645 -226.5778125 527.51821289 -227.390625 527.27001953 C-239.57169207 523.54777355 -250.80484506 519.06091162 -262 513 C-262.94617188 512.52046875 -263.89234375 512.0409375 -264.8671875 511.546875 C-278.47973581 504.51843759 -290.59075201 495.14237454 -302 485 C-302.99128906 484.13117188 -303.98257813 483.26234375 -305.00390625 482.3671875 C-310.42905317 477.53991391 -315.41391617 472.62584373 -320 467 C-320.42893555 466.4834082 -320.85787109 465.96681641 -321.29980469 465.43457031 C-339.58706996 443.38337231 -352.93811225 419.48797751 -363.00146484 392.64355469 C-363.81099859 390.50036851 -364.6494025 388.3767539 -365.51953125 386.2578125 C-371.73209076 370.44043876 -374.42591574 353.05454891 -377.3125 336.375 C-377.47177979 335.47797363 -377.63105957 334.58094727 -377.79516602 333.65673828 C-380.19445368 319.06008021 -380.18661132 304.19888888 -380.18530273 289.44458008 C-380.18748962 286.70052563 -380.20573943 283.95687465 -380.22460938 281.21289062 C-380.2790804 264.5258229 -378.98207008 248.17985454 -375.625 231.8125 C-375.40440918 230.71010986 -375.18381836 229.60771973 -374.95654297 228.47192383 C-374.31743574 225.31173959 -373.6618864 222.1554806 -373 219 C-372.83242188 218.18370117 -372.66484375 217.36740234 -372.4921875 216.52636719 C-364.69079557 178.9243192 -347.15405399 142.05883494 -322 113 C-321.30648437 112.195625 -320.61296875 111.39125 -319.8984375 110.5625 C-317.64004446 108.00025045 -315.3348964 105.49275889 -313 103 C-312.54173828 102.50773926 -312.08347656 102.01547852 -311.61132812 101.50830078 C-277.64636338 65.32185594 -227.9037441 43.72337038 -178.46240234 41.8671875 C-159.25446166 41.29743027 -140.93568871 42.40237975 -122 46 C-121.15453613 46.14953125 -120.30907227 46.2990625 -119.43798828 46.453125 C-74.61713101 54.42619906 -36.48865124 81.56828336 -7.44921875 115.625 C-6 118 -6 118 -6.23814392 119.95487976 C-7.09117779 122.24475692 -8.0132777 123.3821525 -9.74047852 125.09692383 C-10.31520401 125.67465042 -10.8899295 126.25237701 -11.48207092 126.84761047 C-12.10802658 127.46121933 -12.73398224 128.07482819 -13.37890625 128.70703125 C-14.02439926 129.35065109 -14.66989227 129.99427094 -15.33494568 130.65739441 C-16.70426156 132.0199875 -18.07717066 133.37897772 -19.45336914 134.73461914 C-21.53713088 136.78750676 -23.61030064 138.85060293 -25.68164062 140.91601562 C-27.0176146 142.24280661 -28.35418509 143.56899726 -29.69140625 144.89453125 C-30.30319229 145.50206741 -30.91497833 146.10960358 -31.54530334 146.73554993 C-35.32775479 150.45710888 -39.22338323 154.00181261 -43.24868774 157.45953369 C-46.36992328 160.20499394 -49.16987204 163.25620062 -52.01953125 166.27734375 C-54 168 -54 168 -57 168 C-58.35156675 166.34808509 -59.679762 164.67705908 -61 163 C-63.54437025 160.52154608 -66.27022581 158.27067581 -69 156 C-69.52529297 155.5570459 -70.05058594 155.1140918 -70.59179688 154.65771484 C-84.88448611 142.65201666 -99.71722318 134.02892097 -117 127 C-118.00160156 126.58878906 -119.00320313 126.17757812 -120.03515625 125.75390625 C-151.04777093 114.28593219 -186.3044073 116.42073356 -216.234375 129.8515625 C-251.8910539 146.61549189 -277.26962281 178.08278909 -290.875 214.625 C-294.17298617 223.93407979 -296.9054468 233.34919294 -299 243 C-299.19754883 243.89879883 -299.39509766 244.79759766 -299.59863281 245.72363281 C-306.15994227 277.02677038 -304.58003575 309.85574277 -298 341 C-297.71165283 342.37019287 -297.71165283 342.37019287 -297.41748047 343.76806641 C-291.91605914 368.63999717 -279.49434077 392.70313454 -263 412 C-262.19949219 412.96421875 -261.39898438 413.9284375 -260.57421875 414.921875 C-254.1636462 422.35016528 -246.93042739 428.29138529 -239 434 C-238.43796875 434.40492676 -237.8759375 434.80985352 -237.296875 435.22705078 C-218.80958817 448.30961386 -196.18991424 457.01628462 -173.40234375 457.23828125 C-172.57932266 457.24802979 -171.75630157 457.25777832 -170.90834045 457.26782227 C-145.69653596 457.56944745 -145.69653596 457.56944745 -121 453 C-119.94498291 452.71116943 -119.94498291 452.71116943 -118.86865234 452.41650391 C-114.82929014 451.29596704 -110.85474846 450.0440193 -106.89746094 448.66210938 C-105.6356931 448.22182189 -104.37066627 447.79076192 -103.10253906 447.36914062 C-81.43465625 440.15760769 -61.45542978 428.80656606 -45.171875 412.75805664 C-41.3056684 409 -41.3056684 409 -38 409 C-36.39697266 410.18652344 -36.39697266 410.18652344 -34.6640625 411.859375 C-34.01824219 412.47490234 -33.37242187 413.09042969 -32.70703125 413.72460938 C-32.01996094 414.39298828 -31.33289063 415.06136719 -30.625 415.75 C-29.18010646 417.13064692 -27.73478807 418.51084935 -26.2890625 419.890625 C-25.2067334 420.92993164 -25.2067334 420.92993164 -24.10253906 421.99023438 C-21.09944618 424.86081736 -18.05503873 427.68491466 -15 430.5 C-14.50967285 430.9547168 -14.0193457 431.40943359 -13.51416016 431.87792969 C-9.4090083 435.66963739 -5.21064395 439.31568654 -1 443 C-0.67 296.81 -0.34 150.62 0 0 Z " fill="#2B1171" transform="translate(797,732)"/>
<path d="M0 0 C23.76 0 47.52 0 72 0 C72 175.23 72 350.46 72 531 C48.24 531 24.48 531 0 531 C-0.88300563 470.34775434 -1.09184937 409.71681187 -0.90999443 349.05896879 C-0.87384554 336.91699826 -0.84493414 324.77501295 -0.81623887 312.6330229 C-0.76493958 291.00183577 -0.70836592 269.37066609 -0.64819336 247.73950195 C-0.58995421 226.79907907 -0.53437471 205.85865174 -0.48217773 184.91821289 C-0.47892802 183.6148438 -0.4756783 182.3114747 -0.4723301 180.96860958 C-0.4560336 174.42622724 -0.43978733 167.88384478 -0.42356598 161.34146225 C-0.29015691 107.56095327 -0.1477279 53.78047141 0 0 Z " fill="#6135E9" transform="translate(797,732)"/>
<path d="M0 0 C24.46752198 19.46400039 36.91738697 46.28411761 42.22265625 76.62890625 C42.40828125 77.67433594 42.59390625 78.71976563 42.78515625 79.796875 C46.69597961 114.05149744 39.53016158 151.00008935 17.84765625 178.44140625 C16.32903002 180.19084269 14.7867689 181.92001623 13.22265625 183.62890625 C12.39121094 184.55316406 11.55976562 185.47742187 10.703125 186.4296875 C1.01437765 196.68585783 -10.3515273 204.09810963 -23.77734375 208.62890625 C-24.91945313 209.02078125 -26.0615625 209.41265625 -27.23828125 209.81640625 C-48.52550553 216.13673676 -71.61473972 213.99011548 -91.23876953 203.76147461 C-117.58617792 189.39946335 -133.97362082 166.11751596 -142.5715332 137.73876953 C-152.29837776 103.75569918 -149.67345743 67.34920549 -133.77734375 35.62890625 C-119.85251347 10.89594642 -100.10828399 -6.72589937 -72.64453125 -14.6796875 C-47.46715133 -20.75107203 -20.77914854 -15.21744335 0 0 Z " fill="#CDC5F0" transform="translate(1468.77734375,985.37109375)"/>
<path d="M0 0 C23.43 0 46.86 0 71 0 C71 118.47 71 236.94 71 359 C47.57 359 24.14 359 0 359 C0 240.53 0 122.06 0 0 Z " fill="#6235E9" transform="translate(880,904)"/>
<path d="M0 0 C10.56214222 -0.51989819 19.47097159 2.98225931 27.6484375 9.6328125 C32.9692592 14.50029065 36.54184864 19.61137509 39.390625 26.2265625 C39.803125 27.1340625 40.215625 28.0415625 40.640625 28.9765625 C43.10248292 39.64461348 41.54395334 51.61888076 35.765625 60.9765625 C29.02161164 70.12323419 19.75115897 77.09912168 8.390625 79.2265625 C-4.72625758 80.24583618 -15.35911881 77.63603545 -25.609375 69.2265625 C-34.68903892 60.56042782 -38.44833876 50.82155707 -39.046875 38.4140625 C-38.85877529 28.57017746 -34.35050968 19.32007467 -27.609375 12.2265625 C-19.62052828 4.74470028 -10.85197417 0.94223728 0 0 Z " fill="#6236EA" transform="translate(913.609375,785.7734375)"/>
</svg>
